<svg width="19" height="19" viewBox="0 0 19 19" fill="none" xmlns="http://www.w3.org/2000/svg">
<path fill-rule="evenodd" clip-rule="evenodd" d="M0.791504 9.49996C0.791504 4.69048 4.69036 0.791626 9.49984 0.791626C14.3093 0.791626 18.2082 4.69048 18.2082 9.49996C18.2082 10.3667 17.7093 10.9301 17.1215 11.2707C16.5786 11.5853 15.8884 11.7578 15.2773 11.8902C15.0823 11.9324 14.8937 11.9709 14.7106 12.0082C14.2725 12.0976 13.8665 12.1805 13.4839 12.2918C12.9351 12.4514 12.6205 12.6229 12.4674 12.7958L11.8748 12.2708L12.4674 12.7958C12.2411 13.0512 12.096 13.4158 12.0014 13.9134C11.9339 14.2684 11.9023 14.6175 11.8681 14.996C11.8523 15.1709 11.8359 15.3522 11.8152 15.5432C11.757 16.0789 11.6601 16.7362 11.335 17.2602C11.1605 17.5414 10.9177 17.7909 10.5869 17.9641C10.2605 18.1349 9.89286 18.2083 9.49984 18.2083C4.69036 18.2083 0.791504 14.3094 0.791504 9.49996ZM9.49984 2.37496C5.56481 2.37496 2.37484 5.56493 2.37484 9.49996C2.37484 13.435 5.56481 16.625 9.49984 16.625C9.69662 16.625 9.80022 16.5887 9.8526 16.5613C9.90056 16.5362 9.94406 16.4988 9.98954 16.4255C10.1043 16.2404 10.1818 15.9182 10.2411 15.3721C10.2554 15.2409 10.2687 15.0946 10.2828 14.9389C10.3201 14.5281 10.3633 14.0522 10.4459 13.6176C10.5639 12.9969 10.7834 12.309 11.2823 11.7458C11.7479 11.2202 12.4354 10.9478 13.0417 10.7714C13.4907 10.6408 13.9967 10.5376 14.4591 10.4432C14.6275 10.4088 14.7902 10.3756 14.9422 10.3427C15.5618 10.2085 16.025 10.0761 16.3278 9.90071C16.5857 9.7513 16.6248 9.63972 16.6248 9.49996C16.6248 5.56493 13.4349 2.37496 9.49984 2.37496ZM9.104 5.54163C9.104 4.44854 9.99009 3.56246 11.0832 3.56246C12.1763 3.56246 13.0623 4.44854 13.0623 5.54163C13.0623 6.63471 12.1763 7.52079 11.0832 7.52079C9.99009 7.52079 9.104 6.63471 9.104 5.54163ZM11.0832 5.14579C10.8645 5.14579 10.6873 5.323 10.6873 5.54163C10.6873 5.76026 10.8645 5.93746 11.0832 5.93746C11.3018 5.93746 11.479 5.76026 11.479 5.54163C11.479 5.323 11.3018 5.14579 11.0832 5.14579ZM4.354 7.12496C4.354 6.03188 5.24009 5.14579 6.33317 5.14579C7.42625 5.14579 8.31234 6.03188 8.31234 7.12496C8.31234 8.21804 7.42625 9.10413 6.33317 9.10413C5.24009 9.10413 4.354 8.21804 4.354 7.12496ZM6.33317 6.72913C6.11454 6.72913 5.93734 6.90633 5.93734 7.12496C5.93734 7.34359 6.11454 7.52079 6.33317 7.52079C6.5518 7.52079 6.729 7.34359 6.729 7.12496C6.729 6.90633 6.5518 6.72913 6.33317 6.72913ZM4.74984 12.2708C4.74984 11.1777 5.63592 10.2916 6.729 10.2916C7.82209 10.2916 8.70817 11.1777 8.70817 12.2708C8.70817 13.3639 7.82209 14.25 6.729 14.25C5.63592 14.25 4.74984 13.3639 4.74984 12.2708ZM6.729 11.875C6.51037 11.875 6.33317 12.0522 6.33317 12.2708C6.33317 12.4894 6.51037 12.6666 6.729 12.6666C6.94764 12.6666 7.12484 12.4894 7.12484 12.2708C7.12484 12.0522 6.94764 11.875 6.729 11.875Z" fill="#FF546D"/>
</svg>
