<svg width="19" height="17" viewBox="0 0 19 17" fill="none" xmlns="http://www.w3.org/2000/svg">
<path fill-rule="evenodd" clip-rule="evenodd" d="M6.41675 1.021C6.55085 0.752793 6.82498 0.583374 7.12484 0.583374H11.8748C12.1747 0.583374 12.4488 0.752793 12.5829 1.021L13.5516 2.95837H16.229C17.3221 2.95837 18.2082 3.84448 18.2082 4.93754V14.4375C18.2082 15.5306 17.3221 16.4167 16.229 16.4167H2.77067C1.67761 16.4167 0.791504 15.5306 0.791504 14.4375V4.93754C0.791504 3.84448 1.67761 2.95837 2.77067 2.95837H5.44806L6.41675 1.021ZM7.21828 2.95837H11.7814L11.3856 2.16671H7.61412L7.21828 2.95837ZM2.77067 4.54171C2.55206 4.54171 2.37484 4.71893 2.37484 4.93754V14.4375C2.37484 14.6562 2.55206 14.8334 2.77067 14.8334H16.229C16.4476 14.8334 16.6248 14.6562 16.6248 14.4375V4.93754C16.6248 4.71893 16.4476 4.54171 16.229 4.54171H2.77067ZM5.5415 9.68754C5.5415 7.5014 7.3137 5.72921 9.49984 5.72921C11.686 5.72921 13.4582 7.5014 13.4582 9.68754C13.4582 11.8737 11.686 13.6459 9.49984 13.6459C7.3137 13.6459 5.5415 11.8737 5.5415 9.68754ZM9.49984 7.31254C8.18815 7.31254 7.12484 8.37586 7.12484 9.68754C7.12484 10.9992 8.18815 12.0625 9.49984 12.0625C10.8115 12.0625 11.8748 10.9992 11.8748 9.68754C11.8748 8.37586 10.8115 7.31254 9.49984 7.31254Z" fill="#FF546D"/>
</svg>
