<svg width="19" height="19" viewBox="0 0 19 19" fill="none" xmlns="http://www.w3.org/2000/svg">
<path fill-rule="evenodd" clip-rule="evenodd" d="M0.791504 9.49996C0.791504 4.69048 4.69036 0.791626 9.49984 0.791626C14.3093 0.791626 18.2082 4.69048 18.2082 9.49996C18.2082 9.70992 18.1248 9.91129 17.9763 10.0598L10.0596 17.9764C9.75047 18.2856 9.24921 18.2856 8.94005 17.9764L1.02338 10.0598C0.874911 9.91129 0.791504 9.70992 0.791504 9.49996ZM2.58464 7.77672C2.60982 7.76184 2.63487 7.74729 2.65978 7.73305C3.12328 7.46819 3.61756 7.2689 4.10211 7.2689C4.58666 7.2689 5.08094 7.46819 5.54445 7.73305C5.87026 7.91923 6.22029 8.161 6.5932 8.45285C7.49311 7.70305 8.46366 7.2689 9.49984 7.2689C10.536 7.2689 11.5066 7.70305 12.4065 8.45285C12.7794 8.161 13.1294 7.91923 13.4552 7.73305C13.9187 7.46819 14.413 7.2689 14.8976 7.2689C15.3821 7.2689 15.8764 7.46819 16.3399 7.73305C16.3648 7.74729 16.3899 7.76185 16.415 7.77673C15.6445 4.67427 12.8407 2.37496 9.49984 2.37496C6.15902 2.37496 3.35523 4.67427 2.58464 7.77672ZM16.2341 9.56277C15.9802 9.37244 15.7538 9.22177 15.5543 9.10777C15.1782 8.89284 14.9728 8.85223 14.8976 8.85223C14.8224 8.85223 14.6169 8.89284 14.2408 9.10777C13.9162 9.29325 13.5206 9.57578 13.0507 9.96826L11.4633 14.3335L16.2341 9.56277ZM9.49984 15.1001L11.4555 9.72191C10.7302 9.09884 10.0802 8.85223 9.49984 8.85223C8.91952 8.85223 8.26945 9.09884 7.54414 9.72191L9.49984 15.1001ZM5.94896 9.96826C5.4791 9.57578 5.08347 9.29325 4.75889 9.10777C4.38275 8.89284 4.17733 8.85223 4.10211 8.85223C4.0269 8.85223 3.82147 8.89284 3.44533 9.10777C3.24583 9.22177 3.01949 9.37244 2.76556 9.56277L7.53633 14.3335L5.94896 9.96826Z" fill="#FF546D"/>
</svg>
