<svg width="15" height="19" viewBox="0 0 15 19" fill="none" xmlns="http://www.w3.org/2000/svg">
<path fill-rule="evenodd" clip-rule="evenodd" d="M3.93766 4.35413C3.93766 2.38661 5.53264 0.791626 7.50016 0.791626C9.46768 0.791626 11.0627 2.38661 11.0627 4.35413V9.49996C11.0627 11.4675 9.46768 13.0625 7.50016 13.0625C5.53265 13.0625 3.93766 11.4675 3.93766 9.49996V4.35413ZM7.50016 2.37496C6.4071 2.37496 5.521 3.26106 5.521 4.35413V9.49996C5.521 10.593 6.4071 11.4791 7.50016 11.4791C8.59323 11.4791 9.47933 10.593 9.47933 9.49996V4.35413C9.47933 3.26106 8.59323 2.37496 7.50016 2.37496ZM1.56266 8.31246C1.99989 8.31246 2.35433 8.6669 2.35433 9.10413C2.35433 11.9461 4.65819 14.25 7.50016 14.25C10.3421 14.25 12.646 11.9461 12.646 9.10413C12.646 8.6669 13.0004 8.31246 13.4377 8.31246C13.8749 8.31246 14.2293 8.6669 14.2293 9.10413C14.2293 12.5527 11.6352 15.3954 8.29183 15.7872V17.4166C8.29183 17.8539 7.93739 18.2083 7.50016 18.2083C7.06294 18.2083 6.7085 17.8539 6.7085 17.4166V15.7872C3.36514 15.3954 0.770996 12.5527 0.770996 9.10413C0.770996 8.6669 1.12544 8.31246 1.56266 8.31246Z" fill="#FF546D"/>
</svg>
