<svg width="17" height="18" viewBox="0 0 17 18" fill="none" xmlns="http://www.w3.org/2000/svg">
<path fill-rule="evenodd" clip-rule="evenodd" d="M15.7195 0.961609C15.9099 1.11173 16.021 1.34083 16.021 1.5833V4.7833C16.0212 4.79454 16.0212 4.80575 16.021 4.81692V13.6166C16.021 14.8409 15.0286 15.8333 13.8043 15.8333H12.2606C11.0582 15.8333 10.0835 14.8586 10.0835 13.6562C10.0835 12.4538 11.0582 11.4791 12.2606 11.4791H14.4377V5.80043L6.12516 7.7685V15.2C6.12516 16.4242 5.13272 17.4166 3.9085 17.4166H2.76058C1.55821 17.4166 0.583496 16.4419 0.583496 15.2396C0.583496 14.0372 1.55821 13.0625 2.76058 13.0625H4.54183V7.15851C4.54159 7.14728 4.54159 7.13608 4.54183 7.12492V3.9583C4.54183 3.59224 4.79279 3.27392 5.14874 3.18849L15.0446 0.813493C15.2804 0.756907 15.5291 0.811489 15.7195 0.961609ZM6.12516 6.1414L14.4377 4.17333V2.58745L6.12516 4.58245V6.1414ZM4.54183 14.6458H2.76058C2.43266 14.6458 2.16683 14.9116 2.16683 15.2396C2.16683 15.5675 2.43266 15.8333 2.76058 15.8333H3.9085C4.25827 15.8333 4.54183 15.5497 4.54183 15.2V14.6458ZM14.4377 13.0625H12.2606C11.9327 13.0625 11.6668 13.3283 11.6668 13.6562C11.6668 13.9841 11.9327 14.25 12.2606 14.25H13.8043C14.1541 14.25 14.4377 13.9664 14.4377 13.6166V13.0625Z" fill="#FF546D"/>
</svg>
