<svg width="19" height="15" viewBox="0 0 19 15" fill="none" xmlns="http://www.w3.org/2000/svg">
<path d="M5.54162 10.2709C6.59218 10.2709 7.39658 10.4641 8.62597 10.9855L9.0786 11.1834L9.57309 11.4099L10.3003 11.7498L10.719 11.9383C10.7855 11.9676 10.8504 11.9958 10.9139 12.0229L11.2779 12.1736C12.1489 12.5203 12.744 12.6459 13.4583 12.6459C14.209 12.6459 15.0436 12.4456 15.8856 12.1087C16.1859 11.9886 16.465 11.8598 16.7144 11.7316L16.9271 11.6183L17.0093 11.5712C17.3842 11.3462 17.8705 11.4678 18.0955 11.8427C18.3204 12.2176 18.1988 12.7039 17.8239 12.9289L17.6093 13.0513L17.3427 13.1903C17.1 13.3118 16.807 13.4455 16.4737 13.5788C15.4602 13.9842 14.4394 14.2292 13.4583 14.2292C12.4077 14.2292 11.6033 14.036 10.3739 13.5146L9.92131 13.3167L9.42682 13.0902L8.69961 12.7503L8.28087 12.5617C8.21439 12.5325 8.14949 12.5043 8.08605 12.4771L7.72199 12.3265C6.85099 11.9798 6.25593 11.8542 5.54162 11.8542C4.79095 11.8542 3.95634 12.0545 3.11429 12.3913C2.81398 12.5115 2.53491 12.6403 2.28553 12.7685L2.07285 12.8818L1.9906 12.9289C1.61568 13.1538 1.12939 13.0323 0.904442 12.6573C0.679491 12.2824 0.801063 11.7961 1.17598 11.5712L1.39059 11.4488L1.65719 11.3098C1.89996 11.1883 2.19294 11.0546 2.52625 10.9212C3.53967 10.5159 4.56053 10.2709 5.54162 10.2709Z" fill="#FF546D"/>
<path d="M5.54162 5.52087C6.59218 5.52087 7.39658 5.71407 8.62597 6.2355L9.0786 6.43339L9.57309 6.65985L10.3003 6.99976L10.719 7.18834C10.7855 7.2176 10.8504 7.24579 10.9139 7.27295L11.2779 7.42362C12.1489 7.77026 12.744 7.89587 13.4583 7.89587C14.209 7.89587 15.0436 7.69557 15.8856 7.35875C16.1859 7.23862 16.465 7.10982 16.7144 6.98157L16.9271 6.86832L17.0093 6.82119C17.3842 6.59624 17.8705 6.71781 18.0955 7.09273C18.3204 7.46765 18.1988 7.95394 17.8239 8.17889L17.6093 8.30126L17.3427 8.4403C17.1 8.56176 16.807 8.69551 16.4737 8.82883C15.4602 9.2342 14.4394 9.47921 13.4583 9.47921C12.4077 9.47921 11.6033 9.28602 10.3739 8.76458L9.92131 8.56669L9.42682 8.34023L8.69961 8.00032L8.28087 7.81174C8.21439 7.78248 8.14949 7.75429 8.08605 7.72713L7.72199 7.57646C6.85099 7.22982 6.25593 7.10421 5.54162 7.10421C4.79095 7.10421 3.95634 7.30451 3.11429 7.64133C2.81398 7.76146 2.53491 7.89026 2.28553 8.01851L2.07285 8.13176L1.9906 8.17889C1.61568 8.40384 1.12939 8.28227 0.904442 7.90735C0.679491 7.53243 0.801063 7.04614 1.17598 6.82119L1.39059 6.69882L1.65719 6.55978C1.89996 6.43832 2.19294 6.30457 2.52625 6.17125C3.53967 5.76588 4.56053 5.52087 5.54162 5.52087Z" fill="#FF546D"/>
<path d="M5.54162 0.770874C6.59218 0.770874 7.39658 0.964065 8.62597 1.4855L9.0786 1.68339L9.57309 1.90985L10.3003 2.24976L10.719 2.43835C10.7855 2.4676 10.8504 2.49579 10.9139 2.52295L11.2779 2.67362C12.1489 3.02026 12.744 3.14587 13.4583 3.14587C14.209 3.14587 15.0436 2.94557 15.8856 2.60875C16.1859 2.48862 16.465 2.35982 16.7144 2.23157L16.9271 2.11832L17.0093 2.07119C17.3842 1.84624 17.8705 1.96781 18.0955 2.34273C18.3204 2.71765 18.1988 3.20394 17.8239 3.42889L17.6093 3.55126L17.3427 3.6903C17.1 3.81176 16.807 3.94551 16.4737 4.07883C15.4602 4.4842 14.4394 4.72921 13.4583 4.72921C12.4077 4.72921 11.6033 4.53602 10.3739 4.01458L9.92131 3.81669L9.42682 3.59023L8.69961 3.25032L8.28087 3.06174C8.21439 3.03248 8.14949 3.00429 8.08605 2.97713L7.72199 2.82646C6.85099 2.47982 6.25593 2.35421 5.54162 2.35421C4.79095 2.35421 3.95634 2.55451 3.11429 2.89133C2.81398 3.01146 2.53491 3.14026 2.28553 3.26851L2.07285 3.38176L1.9906 3.42889C1.61568 3.65384 1.12939 3.53227 0.904442 3.15735C0.679491 2.78243 0.801063 2.29614 1.17598 2.07119L1.39059 1.94882L1.65719 1.80978C1.89996 1.68832 2.19294 1.55457 2.52625 1.42125C3.53967 1.01588 4.56053 0.770874 5.54162 0.770874Z" fill="#FF546D"/>
</svg>
