<svg width="19" height="19" viewBox="0 0 19 19" fill="none" xmlns="http://www.w3.org/2000/svg">
<path fill-rule="evenodd" clip-rule="evenodd" d="M9.49984 0.791626C4.69036 0.791626 0.791504 4.69048 0.791504 9.49996C0.791504 14.3094 4.69036 18.2083 9.49984 18.2083C14.3093 18.2083 18.2082 14.3094 18.2082 9.49996C18.2082 4.69048 14.3093 0.791626 9.49984 0.791626ZM12.0366 12.1279C13.1156 11.1145 14.6287 10.3286 16.5833 10.2735C16.2264 13.5791 13.6087 16.2071 10.3077 16.5797C10.4128 14.5228 11.0246 13.0783 12.0366 12.1279ZM8.72261 16.5831C8.82971 14.2145 9.53629 12.304 10.9527 10.9738C12.2952 9.71293 14.1852 8.7464 16.5793 8.68967C16.2052 5.3851 13.5706 2.76569 10.259 2.41493C10.1047 4.78558 9.42682 6.70465 8.12915 8.06828C6.80972 9.45469 4.85977 10.1487 2.4164 10.274C2.7746 13.5896 5.40742 16.2234 8.72261 16.5831ZM8.67151 2.42259C8.51977 4.49972 7.92614 5.98482 6.98217 6.97678C6.05181 7.95436 4.57535 8.56469 2.42056 8.68828C2.79261 5.40739 5.39291 2.80218 8.67151 2.42259Z" fill="#FF546D"/>
</svg>
