<svg width="19" height="18" viewBox="0 0 19 18" fill="none" xmlns="http://www.w3.org/2000/svg">
<path fill-rule="evenodd" clip-rule="evenodd" d="M14.6457 2.37496C13.9898 2.37496 13.4582 2.90662 13.4582 3.56246C13.4582 4.2183 13.9898 4.74996 14.6457 4.74996C15.3015 4.74996 15.8332 4.2183 15.8332 3.56246C15.8332 2.90662 15.3015 2.37496 14.6457 2.37496ZM11.8748 3.56246C11.8748 2.03217 13.1154 0.791626 14.6457 0.791626C16.176 0.791626 17.4165 2.03217 17.4165 3.56246C17.4165 5.09275 16.176 6.33329 14.6457 6.33329C13.1154 6.33329 11.8748 5.09275 11.8748 3.56246ZM7.13181 3.16666C7.44886 3.16945 7.73366 3.36113 7.85561 3.65381L11.0007 11.2021L11.9155 8.45795C12.0132 8.16464 12.2728 7.95509 12.5801 7.92135C12.8874 7.88762 13.1863 8.03587 13.3454 8.30098L18.0954 16.2177C18.2421 16.4622 18.2459 16.7668 18.1054 17.015C17.9649 17.2632 17.7017 17.4166 17.4165 17.4166H1.58317C1.316 17.4166 1.06686 17.2819 0.920624 17.0583C0.774389 16.8347 0.750796 16.5524 0.857882 16.3076L6.39955 3.64098C6.52663 3.3505 6.81477 3.16386 7.13181 3.16666ZM2.79364 15.8333H16.0183L12.8732 10.5916L11.8342 13.7086C11.7298 14.0218 11.442 14.2374 11.1121 14.2494C10.7822 14.2615 10.4794 14.0675 10.3524 13.7628L7.10708 5.97401L2.79364 15.8333Z" fill="#FF546D"/>
</svg>
