<svg width="19" height="18" viewBox="0 0 19 18" fill="none" xmlns="http://www.w3.org/2000/svg">
<path d="M6.33317 9.49996C6.7704 9.49996 7.12484 9.8544 7.12484 10.2916V11.0833H7.9165C8.35373 11.0833 8.70817 11.4377 8.70817 11.875C8.70817 12.3122 8.35373 12.6666 7.9165 12.6666H7.12484V13.4583C7.12484 13.8955 6.7704 14.25 6.33317 14.25C5.89595 14.25 5.5415 13.8955 5.5415 13.4583V12.6666H4.74984C4.31261 12.6666 3.95817 12.3122 3.95817 11.875C3.95817 11.4377 4.31261 11.0833 4.74984 11.0833H5.5415V10.2916C5.5415 9.8544 5.89595 9.49996 6.33317 9.49996Z" fill="#FF546D"/>
<path fill-rule="evenodd" clip-rule="evenodd" d="M12.6665 9.49996C11.3548 9.49996 10.2915 10.5633 10.2915 11.875C10.2915 13.1866 11.3548 14.25 12.6665 14.25C13.9782 14.25 15.0415 13.1866 15.0415 11.875C15.0415 10.5633 13.9782 9.49996 12.6665 9.49996ZM11.8748 11.875C11.8748 11.4377 12.2293 11.0833 12.6665 11.0833C13.1037 11.0833 13.4582 11.4377 13.4582 11.875C13.4582 12.3122 13.1037 12.6666 12.6665 12.6666C12.2293 12.6666 11.8748 12.3122 11.8748 11.875Z" fill="#FF546D"/>
<path fill-rule="evenodd" clip-rule="evenodd" d="M12.6665 0.791626C13.1037 0.791626 13.4582 1.14607 13.4582 1.58329V3.8452C13.4582 4.28242 13.1037 4.63686 12.6665 4.63686H10.2915V6.33329H12.6665C15.7271 6.33329 18.2082 8.81438 18.2082 11.875C18.2082 14.9355 15.7271 17.4166 12.6665 17.4166H6.33317C3.27259 17.4166 0.791504 14.9355 0.791504 11.875C0.791504 8.81438 3.27259 6.33329 6.33317 6.33329H8.70817V3.8452C8.70817 3.40797 9.06261 3.05353 9.49984 3.05353H11.8748V1.58329C11.8748 1.14607 12.2293 0.791626 12.6665 0.791626ZM6.33317 7.91663C4.14704 7.91663 2.37484 9.68883 2.37484 11.875C2.37484 14.0611 4.14704 15.8333 6.33317 15.8333H12.6665C14.8526 15.8333 16.6248 14.0611 16.6248 11.875C16.6248 9.68883 14.8526 7.91663 12.6665 7.91663H6.33317Z" fill="#FF546D"/>
</svg>
