<svg width="19" height="17" viewBox="0 0 19 17" fill="none" xmlns="http://www.w3.org/2000/svg">
<path fill-rule="evenodd" clip-rule="evenodd" d="M9.49984 1.77083C7.31371 1.77083 5.5415 3.54304 5.5415 5.72917C5.5415 5.74789 5.54164 5.76657 5.54189 5.78523C5.80033 5.74828 6.06452 5.72917 6.33317 5.72917C7.51064 5.72917 8.60234 6.09639 9.49998 6.72256C10.3976 6.09651 11.4892 5.72936 12.6665 5.72936C12.9352 5.72936 13.1993 5.74848 13.4578 5.78543C13.458 5.76671 13.4582 5.74795 13.4582 5.72917C13.4582 3.54304 11.686 1.77083 9.49984 1.77083ZM15.0172 6.2512C15.0333 6.07935 15.0415 5.90522 15.0415 5.72917C15.0415 2.66859 12.5604 0.1875 9.49984 0.1875C6.43926 0.1875 3.95817 2.66859 3.95817 5.72917C3.95817 5.90515 3.96637 6.07922 3.98242 6.25101C2.09711 7.13542 0.791504 9.05066 0.791504 11.2708C0.791504 14.3314 3.27259 16.8125 6.33317 16.8125C7.51051 16.8125 8.60211 16.4454 9.4997 15.8193C10.3973 16.4455 11.489 16.8127 12.6665 16.8127C15.7271 16.8127 18.2082 14.3316 18.2082 11.271C18.2082 9.05085 16.9026 7.1356 15.0172 6.2512ZM13.1175 7.33811C12.9695 7.32132 12.819 7.3127 12.6665 7.3127C11.9455 7.3127 11.2695 7.50548 10.6872 7.84231C11.0033 8.24313 11.2652 8.68864 11.4619 9.1678C12.1904 8.75123 12.7738 8.10981 13.1175 7.33811ZM11.8506 10.749C13.1037 10.1611 14.1007 9.11788 14.6285 7.83236C15.8211 8.51429 16.6248 9.7988 16.6248 11.271C16.6248 13.4572 14.8526 15.2294 12.6665 15.2294C11.9454 15.2294 11.2693 15.0365 10.687 14.6996C11.4309 13.7563 11.8748 12.5654 11.8748 11.2708C11.8748 11.0948 11.8666 10.9208 11.8506 10.749ZM9.95092 9.66208C9.82923 9.38884 9.6775 9.13193 9.49991 8.89555C9.32231 9.13193 9.17055 9.38884 9.04884 9.66209C9.19685 9.67888 9.34734 9.6875 9.49984 9.6875C9.65237 9.6875 9.80288 9.67887 9.95092 9.66208ZM8.70856 11.2148C8.967 11.2517 9.23119 11.2708 9.49984 11.2708C9.76849 11.2708 10.0327 11.2517 10.2911 11.2148C10.2914 11.2334 10.2915 11.2521 10.2915 11.2708C10.2915 12.1622 9.99691 12.9847 9.49977 13.6463C9.00272 12.9847 8.70817 12.1623 8.70817 11.271C8.70817 11.2522 8.7083 11.2335 8.70856 11.2148ZM7.53788 9.16784C7.73461 8.68863 7.99655 8.24308 8.31266 7.84224C7.73037 7.50533 7.05429 7.3125 6.33317 7.3125C6.18064 7.3125 6.03013 7.32113 5.88209 7.33792C6.22582 8.10973 6.80927 8.75123 7.53788 9.16784ZM4.37114 7.8322C4.89887 9.1178 5.89592 10.1611 7.1491 10.749C7.13305 10.9209 7.12484 11.095 7.12484 11.271C7.12484 12.5655 7.56866 13.7563 8.31244 14.6996C7.7302 15.0364 7.0542 15.2292 6.33317 15.2292C4.14704 15.2292 2.37484 13.457 2.37484 11.2708C2.37484 9.79863 3.17855 8.51414 4.37114 7.8322Z" fill="#FF546D"/>
</svg>
