<svg width="20" height="20" viewBox="0 0 20 20" fill="none" xmlns="http://www.w3.org/2000/svg">
<path fill-rule="evenodd" clip-rule="evenodd" d="M0.833496 9.99992C0.833496 4.93731 4.93755 0.833252 10.0002 0.833252C10.2212 0.833252 10.4331 0.921049 10.5894 1.07733L18.9228 9.41066C19.079 9.56694 19.1668 9.7789 19.1668 9.99992C19.1668 15.0625 15.0628 19.1666 10.0002 19.1666C4.93755 19.1666 0.833496 15.0625 0.833496 9.99992ZM8.90575 2.5792C5.28236 3.10895 2.50016 6.22952 2.50016 9.99992C2.50016 14.1421 5.85802 17.4999 10.0002 17.4999C13.7975 17.4999 16.9358 14.6778 17.4319 11.0164C16.9773 11.0743 16.4084 11.1161 15.7772 11.0931C14.2216 11.0366 12.1997 10.5806 10.6395 8.90029C9.0972 7.23935 8.74739 5.33862 8.77637 3.88951C8.78622 3.39691 8.83959 2.95213 8.90575 2.5792ZM10.4815 3.32639L16.5761 9.42108C16.3456 9.43321 16.0976 9.437 15.8377 9.42755C14.5287 9.37995 13.0089 9.00261 11.8608 7.76621C10.6948 6.51049 10.4196 5.07788 10.4427 3.92283C10.4469 3.71248 10.4611 3.51259 10.4815 3.32639Z" fill="#ADAFBB"/>
</svg>
