<svg width="16" height="8" viewBox="0 0 16 8" fill="none" xmlns="http://www.w3.org/2000/svg">
<path d="M11.8046 1.13807C12.0649 0.877722 12.0649 0.455612 11.8046 0.195262C11.5442 -0.0650874 11.1221 -0.0650874 10.8618 0.195262L4.6665 6.39052L1.80458 3.5286C1.54423 3.26825 1.12212 3.26825 0.861766 3.5286C0.601417 3.78894 0.601417 4.21106 0.861766 4.4714L4.1951 7.80474C4.45545 8.06509 4.87756 8.06509 5.13791 7.80474L11.8046 1.13807Z" fill="#FF546D"/>
<path d="M15.1379 1.13807C15.3983 0.877722 15.3983 0.455612 15.1379 0.195262C14.8776 -0.0650874 14.4554 -0.0650874 14.1951 0.195262L7.99669 6.39367C7.73501 6.18623 7.3536 6.20343 7.11177 6.44526C6.85142 6.70561 6.85142 7.12772 7.11177 7.38807L7.52843 7.80474C7.78878 8.06509 8.21089 8.06509 8.47124 7.80474L15.1379 1.13807Z" fill="#FF546D"/>
<path d="M5.55457 3.94526L5.13791 3.5286C4.87756 3.26825 4.45545 3.26825 4.1951 3.5286C3.93475 3.78894 3.93475 4.21106 4.1951 4.4714L4.61177 4.88807C4.87212 5.14842 5.29423 5.14842 5.55457 4.88807C5.81492 4.62772 5.81492 4.20561 5.55457 3.94526Z" fill="#FF546D"/>
</svg>
