<svg width="42" height="42" viewBox="0 0 42 42" fill="none" xmlns="http://www.w3.org/2000/svg">
<rect x="0.5" y="0.5" width="41" height="41" rx="14.5" fill="white" stroke="#E8E6EA"/>
<path d="M14.2732 9.08428C13.9264 9.21553 13.7904 9.30928 13.0357 9.94678C12.1451 10.6968 11.8592 10.9687 11.531 11.3671C10.5139 12.6093 9.95605 14.0437 9.84823 15.6937C9.75448 17.1468 10.0029 18.553 10.6451 20.2499C10.8701 20.8405 11.6435 22.3405 12.0889 23.053C13.8607 25.889 16.6967 28.9593 19.1248 30.6843C22.5748 33.1265 25.9873 33.6468 28.8889 32.1702C29.5217 31.8468 29.9764 31.5233 30.7123 30.8671C31.8701 29.8358 32.067 29.5874 32.1514 29.0671C32.2873 28.214 31.767 27.4874 29.906 25.903C28.5842 24.7733 27.7217 24.328 26.8967 24.328C26.0998 24.3327 25.6217 24.6187 24.2904 25.889C23.9248 26.2405 23.5545 26.5546 23.4326 26.6108C22.3873 27.1265 21.0045 26.4983 19.2185 24.7077C17.8967 23.3812 16.7248 21.8671 16.1529 20.7515C15.6139 19.6921 15.5014 18.8858 15.8107 18.2249C15.9467 17.9343 16.1576 17.7093 16.6404 17.353C17.1139 17.0015 17.9998 16.2187 18.206 15.9702C18.2951 15.8577 18.4404 15.6233 18.5201 15.4499C18.642 15.1827 18.6748 15.0562 18.6935 14.6999C18.7217 14.1327 18.6045 13.664 18.2389 12.9093C17.9248 12.2577 17.0717 10.889 16.5982 10.2796C15.7779 9.22022 14.9951 8.81709 14.2732 9.08428Z" fill="#FF546D"/>
</svg>
