<svg width="42" height="42" viewBox="0 0 42 42" fill="none" xmlns="http://www.w3.org/2000/svg">
<rect x="0.5" y="0.5" width="41" height="41" rx="14.5" fill="white" stroke="#E8E6EA"/>
<g clip-path="url(#clip0_226_4599)">
<path d="M10.9502 14.0391C10.0314 14.2922 9.2627 15.1031 9.07051 16.0172C8.96738 16.4906 8.96738 25.5094 9.07051 25.9828C9.26738 26.9109 10.0361 27.7125 10.9689 27.9609C11.3674 28.0687 22.8189 28.0641 23.2221 27.9609C24.0846 27.7359 24.7971 27.0562 25.083 26.1984L25.1955 25.8516V21C25.1955 16.4344 25.1908 16.1297 25.1111 15.8672C24.8346 14.9625 24.1174 14.2641 23.2268 14.0391C22.9877 13.9781 22.1814 13.9687 17.0627 13.9734C12.2721 13.9781 11.1377 13.9875 10.9502 14.0391Z" fill="#FF546D"/>
<path d="M30.9094 15.436C30.825 15.4688 29.8078 16.0407 28.6453 16.711L26.5312 17.9297L26.5406 20.9907L26.5547 24.0563L28.6172 25.2375C29.7516 25.8891 30.7641 26.4516 30.8672 26.4938C31.1859 26.6203 31.4578 26.6391 31.7719 26.5594C32.2641 26.4328 32.6672 26.1 32.8781 25.6453C32.9766 25.4297 32.9766 25.411 32.9906 21.1219C33.0047 16.3828 33.0094 16.4766 32.7187 16.0547C32.4047 15.6 31.9594 15.3703 31.3922 15.3797C31.2047 15.3797 30.9891 15.4078 30.9094 15.436Z" fill="#FF546D"/>
</g>
<defs>
<clipPath id="clip0_226_4599">
<rect width="24" height="24" fill="white" transform="translate(9 9)"/>
</clipPath>
</defs>
</svg>
