<svg width="18" height="18" viewBox="0 0 18 18" fill="none" xmlns="http://www.w3.org/2000/svg">
<path d="M18 4V3.25C18 1.458 16.542 0 14.75 0H3.25C1.458 0 0 1.458 0 3.25V4H18ZM0 5.5V14.75C0 16.542 1.458 18 3.25 18H14.75C16.542 18 18 16.542 18 14.75V5.5H0ZM4.75 15C4.0595 15 3.5 14.4405 3.5 13.75C3.5 13.0595 4.0595 12.5 4.75 12.5C5.4405 12.5 6 13.0595 6 13.75C6 14.4405 5.4405 15 4.75 15ZM4.75 10.5C4.0595 10.5 3.5 9.9405 3.5 9.25C3.5 8.5595 4.0595 8 4.75 8C5.4405 8 6 8.5595 6 9.25C6 9.9405 5.4405 10.5 4.75 10.5ZM9 15C8.3095 15 7.75 14.4405 7.75 13.75C7.75 13.0595 8.3095 12.5 9 12.5C9.6905 12.5 10.25 13.0595 10.25 13.75C10.25 14.4405 9.6905 15 9 15ZM9 10.5C8.3095 10.5 7.75 9.9405 7.75 9.25C7.75 8.5595 8.3095 8 9 8C9.6905 8 10.25 8.5595 10.25 9.25C10.25 9.9405 9.6905 10.5 9 10.5ZM13.25 10.5C12.5595 10.5 12 9.9405 12 9.25C12 8.5595 12.5595 8 13.25 8C13.9405 8 14.5 8.5595 14.5 9.25C14.5 9.9405 13.9405 10.5 13.25 10.5Z" fill="#FF5A72"/>
</svg>
