<svg width="18" height="18" viewBox="0 0 18 18" fill="none" xmlns="http://www.w3.org/2000/svg">
<path d="M15.34 0.992176C15.0783 1.09764 13.6643 2.14061 12.7893 2.86718C10.5783 4.71093 8.27364 7.08202 6.41036 9.43358C6.12911 9.79296 5.87911 10.0898 5.86349 10.0898C5.84786 10.0937 4.98458 9.49999 3.94942 8.77733C2.91427 8.05468 2.03146 7.4414 1.98849 7.41015C1.94552 7.3828 1.85177 7.35936 1.77755 7.35936C1.65255 7.35936 1.57833 7.42186 0.945518 8.05077C0.0861431 8.91015 0.101768 8.84765 0.550987 9.46483C2.63302 12.3359 4.8088 15.4922 5.44552 16.5664C5.60177 16.8359 5.69161 16.9453 5.78927 16.9922C5.93771 17.0625 6.10958 17.0391 6.19942 16.9375C6.23067 16.9023 6.45724 16.5351 6.69942 16.1289C8.67208 12.7969 11.1721 9.10546 13.2346 6.48046C14.508 4.85936 15.4533 3.78515 16.7385 2.5078C17.6838 1.5664 17.7502 1.49218 17.7502 1.35936C17.7502 1.17968 17.6955 1.08593 17.5549 1.01171C17.4611 0.964832 17.258 0.953114 16.4338 0.95702C15.8791 0.95702 15.3869 0.972645 15.34 0.992176Z" fill="#ADAFBB"/>
</svg>
