<svg width="23" height="24" viewBox="0 0 23 24" fill="none" xmlns="http://www.w3.org/2000/svg">
<path d="M7.05665 10.0407C7.79633 11.3816 8.64883 12.6685 9.75566 13.8421C10.8661 15.0228 12.2469 16.0974 14.0343 17.0153C14.1669 17.0801 14.2922 17.0801 14.4051 17.0351C14.5752 16.9703 14.7489 16.8282 14.9191 16.6572C15.0516 16.524 15.2164 16.3116 15.3883 16.0794C16.076 15.1704 16.9268 14.0419 18.1285 14.6071C18.1554 14.6197 18.1751 14.6341 18.2019 14.6448L22.2102 16.9613C22.2227 16.9685 22.237 16.9811 22.2478 16.9883C22.7761 17.3537 22.9946 17.9171 23 18.5561C23 19.2058 22.7618 19.9366 22.4125 20.554C21.9505 21.3693 21.2699 21.9093 20.4854 22.2657C19.7386 22.6113 18.9076 22.7967 18.1088 22.9155C16.8551 23.1009 15.6802 22.9821 14.4785 22.6113C13.3036 22.2459 12.1198 21.6429 10.8267 20.8402L10.7317 20.779C10.1389 20.4064 9.49776 20.0086 8.86912 19.5388C6.5695 17.7929 4.22511 15.2712 2.6974 12.4957C1.41684 10.1667 0.718359 7.65217 1.09984 5.25647C1.31117 3.94253 1.87175 2.74739 2.84963 1.95902C3.70214 1.26786 4.85016 0.889872 6.33667 1.02307C6.50682 1.03567 6.65905 1.13466 6.73965 1.28225L9.30971 5.64886C9.68581 6.13844 9.73238 6.62441 9.52642 7.11039C9.35627 7.50817 9.0124 7.87536 8.54317 8.21734C8.40526 8.33614 8.24049 8.45673 8.06676 8.58272C7.49186 9.00211 6.83815 9.48628 7.06202 10.0551L7.05665 10.0407Z" fill="black"/>
</svg>
