<svg width="18" height="18" viewBox="0 0 18 18" fill="none" xmlns="http://www.w3.org/2000/svg">
<path fill-rule="evenodd" clip-rule="evenodd" d="M1.39052 1.39052C1.91122 0.869825 2.75544 0.869825 3.27614 1.39052L9 7.11438L14.7239 1.39052C15.2446 0.869825 16.0888 0.869825 16.6095 1.39052C17.1302 1.91122 17.1302 2.75544 16.6095 3.27614L10.8856 9L16.6095 14.7239C17.1302 15.2446 17.1302 16.0888 16.6095 16.6095C16.0888 17.1302 15.2446 17.1302 14.7239 16.6095L9 10.8856L3.27614 16.6095C2.75544 17.1302 1.91122 17.1302 1.39052 16.6095C0.869825 16.0888 0.869825 15.2446 1.39052 14.7239L7.11438 9L1.39052 3.27614C0.869825 2.75544 0.869825 1.91122 1.39052 1.39052Z" fill="#FF0000" stroke="#FF0000" stroke-width="2" stroke-linecap="round" stroke-linejoin="round"/>
</svg>
