<svg width="15" height="15" viewBox="0 0 15 15" fill="none" xmlns="http://www.w3.org/2000/svg">
<path d="M5.4639 0.981497C4.73148 1.14263 4.12796 1.68169 3.84085 2.42876C3.60648 3.03814 3.59183 3.76177 3.80569 4.37407C3.9346 4.74907 4.10159 5.00982 4.39456 5.30279C4.69925 5.60747 4.89261 5.73638 5.22073 5.85064C5.50198 5.95025 5.98538 5.97368 6.27542 5.9063C7.11917 5.71001 7.76956 4.9981 7.98929 4.03423C8.06546 3.69146 8.05374 3.10259 7.95999 2.7481C7.63773 1.52349 6.53616 0.744193 5.4639 0.981497ZM6.32523 1.93657C6.68851 2.11529 6.98734 2.50786 7.10452 2.95904C7.17191 3.21099 7.17191 3.67388 7.10452 3.92583C6.98148 4.39458 6.68265 4.78716 6.31351 4.9688C6.1553 5.04497 6.10843 5.05376 5.84476 5.05376C5.58109 5.05376 5.53421 5.04497 5.37601 4.9688C5.0303 4.79888 4.72562 4.4063 4.59671 3.96099C4.52347 3.70904 4.51761 3.24615 4.58499 2.98247C4.72855 2.42583 5.14163 1.95122 5.57816 1.84868C5.80081 1.79302 6.10843 1.83111 6.32523 1.93657Z" fill="#FF546D"/>
<path d="M10.2656 2.1357C9.39844 2.27339 8.66016 2.99117 8.40528 3.94039C8.31739 4.26558 8.31739 4.8398 8.40235 5.15914C8.65137 6.08199 9.36036 6.65914 10.2363 6.65328C11.1563 6.65035 11.959 6.00289 12.3076 4.98628C12.4043 4.70796 12.4072 4.69039 12.4043 4.21871C12.4043 3.77632 12.3984 3.7148 12.3281 3.50972C12.1084 2.8564 11.6191 2.36128 11.0186 2.1855C10.8252 2.12984 10.4648 2.1064 10.2656 2.1357ZM10.8897 3.07613C11.291 3.25191 11.543 3.68843 11.543 4.20992C11.543 4.50289 11.499 4.69332 11.3643 4.97164C11.2119 5.28218 10.9658 5.53707 10.6963 5.66597C10.5205 5.748 10.4766 5.75679 10.2246 5.75679C9.90821 5.75679 9.81153 5.72164 9.59473 5.53121C9.41895 5.37593 9.26954 5.06539 9.22559 4.77535C9.11133 3.99312 9.67676 3.123 10.3652 3.02046C10.5674 2.98824 10.7256 3.00582 10.8897 3.07613Z" fill="#FF546D"/>
<path d="M1.37111 3.88184C0.290053 4.14551 -0.278306 5.39648 0.149428 6.57422C0.392592 7.24805 0.925795 7.77246 1.5674 7.97461C1.85451 8.06543 2.30275 8.06543 2.59865 7.97461C3.02345 7.84277 3.40724 7.51172 3.62111 7.08691C3.79103 6.74707 3.84669 6.46289 3.83205 6.03516C3.82033 5.72461 3.80275 5.62793 3.72365 5.39356C3.58888 4.99219 3.43361 4.74316 3.12306 4.43848C2.90919 4.22461 2.80665 4.14844 2.60451 4.04883C2.20021 3.84961 1.75783 3.78809 1.37111 3.88184ZM2.18849 4.81934C2.28224 4.86621 2.43165 4.97754 2.51955 5.06543C3.13478 5.68652 3.09962 6.74121 2.44923 7.08398C2.32326 7.15137 2.26466 7.16309 2.06544 7.16016C1.86623 7.16016 1.8047 7.14844 1.66994 7.07813C1.43849 6.95801 1.28908 6.82617 1.15138 6.62109C0.969741 6.35156 0.896498 6.1084 0.893569 5.77148C0.893569 5.46387 0.940444 5.29395 1.08986 5.07422C1.32423 4.73145 1.78712 4.62598 2.18849 4.81934Z" fill="#FF546D"/>
<path d="M12.8467 5.99423C12.7354 6.01766 12.5068 6.10262 12.3457 6.18172C11.5693 6.55672 11.0449 7.38583 11.0449 8.23251C11.0449 8.78329 11.209 9.19344 11.5693 9.55087C11.9443 9.92587 12.3252 10.0665 12.876 10.0401C13.2393 10.0225 13.4941 9.9493 13.8252 9.76766C14.0801 9.62411 14.5107 9.19344 14.6719 8.92098C15.0498 8.27645 15.0967 7.50594 14.7979 6.8995C14.6514 6.60653 14.502 6.43368 14.2471 6.2579C13.8516 5.98837 13.3242 5.88876 12.8467 5.99423ZM13.5264 6.8702C13.6113 6.89657 13.7285 6.96395 13.8076 7.03133C14.4053 7.55868 14.0947 8.68075 13.2422 9.07919C13.1045 9.14071 13.0371 9.15243 12.8027 9.15536C12.5625 9.15536 12.5039 9.14657 12.3809 9.08212C12.2021 8.99129 12.0586 8.8243 11.9795 8.61629C11.9004 8.40536 11.9121 8.00692 12.0088 7.76962C12.2783 7.09872 12.9521 6.70028 13.5264 6.8702Z" fill="#FF546D"/>
<path d="M6.33985 6.32526C5.70117 6.43951 5.14453 6.69147 4.64356 7.09869C4.25098 7.41803 4.04883 7.69049 3.09961 9.16998C2.59863 9.95221 2.15039 10.67 2.10645 10.7667C1.83106 11.3555 1.83106 12.1143 2.10938 12.7061C2.4082 13.3448 2.96485 13.8018 3.66211 13.9776C3.87012 14.0303 3.9668 14.0391 4.29199 14.0274C4.62305 14.0157 4.70508 14.001 4.92188 13.9249C6.04981 13.5176 6.16992 13.4913 6.95801 13.4942C7.4502 13.4942 7.59082 13.503 7.84277 13.5587C8.12988 13.6202 8.24414 13.6583 8.93555 13.9044C9.21387 14.004 9.27832 14.0157 9.60938 14.0274C10.1367 14.045 10.4971 13.9571 10.9219 13.7081C11.1563 13.5674 11.5371 13.1807 11.6895 12.9258C11.8945 12.5772 11.9854 12.2667 12.0029 11.8506C12.0205 11.4464 11.9766 11.1622 11.8418 10.8428C11.7656 10.6671 10.4824 8.62506 9.98731 7.89557C9.8086 7.6319 9.4541 7.24518 9.21387 7.05182C8.45215 6.43365 7.33008 6.1524 6.33985 6.32526ZM7.62012 7.23346C8.25 7.39459 8.79785 7.75787 9.16406 8.25592C9.41895 8.59869 10.9014 10.9337 11.0098 11.1563C11.0947 11.335 11.1123 11.4112 11.127 11.6251C11.1504 12.0733 11.0479 12.3751 10.7695 12.6768C10.4326 13.0401 10.1191 13.1719 9.6416 13.1485C9.39551 13.1368 9.31934 13.1163 9.01465 12.9962C8.30274 12.7178 7.74317 12.6124 6.97266 12.6124C6.16406 12.6124 5.61328 12.7149 4.89258 12.9991C4.59668 13.1163 4.52051 13.1339 4.27442 13.1485C4.04004 13.1602 3.95508 13.1514 3.78223 13.0987C3.38086 12.9756 3.02344 12.6475 2.86817 12.2549C2.80957 12.1114 2.79785 12.0323 2.79785 11.7335C2.79785 11.42 2.80664 11.3614 2.87402 11.2061C2.9502 11.0245 4.54102 8.52252 4.76367 8.22955C5.18555 7.67877 5.84766 7.28912 6.54785 7.1778C6.81152 7.13678 7.36231 7.16608 7.62012 7.23346Z" fill="#FF546D"/>
</svg>
