<svg width="12" height="20" viewBox="0 0 12 20" fill="none" xmlns="http://www.w3.org/2000/svg">
<path d="M6.64455 0.0742188C6.58205 0.113281 6.50002 0.179688 6.46487 0.21875C6.43362 0.257812 5.16409 2.79297 3.64455 5.84375C0.640647 11.8867 0.781272 11.5664 0.968772 11.8672C1.01565 11.9453 1.11721 12.0312 1.21096 12.0742C1.3594 12.1406 1.50783 12.1484 3.39065 12.1484H5.41018L5.39065 12.2734C5.33596 12.6484 4.59377 19.3633 4.59377 19.4844C4.59377 19.7656 4.83596 20 5.12893 20C5.28127 20 5.47268 19.875 5.58205 19.6992C5.63284 19.6172 6.90237 17.1406 8.39846 14.1953C11.4102 8.25781 11.2383 8.64844 10.9844 8.36719L10.8516 8.22266L8.69924 8.21094C7.51565 8.20703 6.5469 8.19141 6.5469 8.18359C6.5469 8.17578 6.74221 6.48828 6.97659 4.43359C7.21487 2.37891 7.40627 0.636719 7.40627 0.554688C7.40627 0.28125 7.14065 0 6.87893 0C6.81643 0 6.71096 0.03125 6.64455 0.0742188Z" fill="#AA3FEC"/>
</svg>
