<svg width="15" height="15" viewBox="0 0 15 15" fill="none" xmlns="http://www.w3.org/2000/svg">
<path d="M5.31733 0.099679C3.64447 0.65046 2.20893 1.75202 1.24799 3.22858C0.418889 4.50007 -0.0205645 6.09968 0.0380292 7.61726C0.0702558 8.43171 0.175725 9.02351 0.427678 9.78816C1.03998 11.6456 2.39057 13.2247 4.14545 14.1387C4.91596 14.5401 5.72748 14.7979 6.63568 14.9298C7.06635 14.9942 8.16498 15.003 8.58393 14.9473C10.3154 14.7159 11.83 13.9805 13.0253 12.7882C13.4619 12.3516 13.708 12.0557 14.0361 11.5606C14.5371 10.8077 14.9999 9.72956 14.9999 9.31355C14.9999 9.16413 14.9882 9.12898 14.9091 9.03816C14.7187 8.82136 14.4785 8.83015 14.2001 9.06159C13.7402 9.45124 13.3095 9.73249 12.8408 9.94929C10.2216 11.1768 7.10737 10.3067 5.5019 7.89558C4.25971 6.0323 4.19819 3.60066 5.34662 1.6905C5.53705 1.37116 5.69819 1.14851 5.96479 0.832101C6.18158 0.574288 6.20795 0.36921 6.04389 0.175851C5.87397 -0.0262976 5.74506 -0.040946 5.31733 0.099679ZM4.29487 1.74616C4.06342 2.22077 3.86127 2.8155 3.74994 3.36628C3.58002 4.21296 3.59174 5.23835 3.77924 6.10847C3.94037 6.85261 4.3183 7.74323 4.73139 8.36433C5.84467 10.0313 7.59662 11.1182 9.55072 11.3526C9.95502 11.4024 10.705 11.4083 11.0976 11.3643C11.8388 11.2823 12.6562 11.045 13.3007 10.7227C13.4355 10.6583 13.5468 10.6085 13.5527 10.6143C13.5732 10.6319 13.2656 11.1124 13.0546 11.3966C12.8056 11.7305 12.2314 12.3282 11.9091 12.5889C11.121 13.2247 10.0634 13.7344 9.11127 13.9425C8.44037 14.086 7.60248 14.1329 6.94916 14.0596C5.70404 13.9249 4.456 13.4122 3.47748 12.6358C2.08002 11.5255 1.1601 9.85554 0.96967 8.08015C0.952092 7.92194 0.937443 7.59089 0.937443 7.34187C0.937443 5.89753 1.40033 4.51179 2.27924 3.32819C2.53119 2.99128 3.10541 2.39069 3.42475 2.13288C3.74408 1.878 4.38862 1.45026 4.41498 1.47663C4.42084 1.48249 4.36811 1.60261 4.29487 1.74616Z" fill="#FF546D"/>
<path d="M12.9111 0.65625C12.6768 0.741211 12.6006 0.890625 12.5977 1.26562V1.52344H12.334C12.123 1.52344 12.0439 1.53516 11.9502 1.58203C11.7979 1.66113 11.7188 1.79297 11.7188 1.97461C11.7188 2.28516 11.9209 2.43164 12.3428 2.43164H12.5977V2.68652C12.5977 3.10547 12.7471 3.31055 13.0518 3.31055C13.3623 3.31055 13.5029 3.11426 13.5059 2.68652V2.43164H13.7637C13.9717 2.43164 14.0449 2.41992 14.1504 2.36426C14.4551 2.21191 14.4814 1.80469 14.2031 1.60547C14.1211 1.54687 14.0654 1.53809 13.8076 1.5293L13.5117 1.51758L13.5 1.22168C13.4912 0.963867 13.4824 0.908203 13.4238 0.826172C13.3037 0.659179 13.0957 0.591797 12.9111 0.65625Z" fill="#FF546D"/>
<path d="M9.26364 3.32812C9.13473 3.39551 9.1025 3.44531 8.79196 4.06348L8.52536 4.59961L7.93942 4.89258C7.57321 5.07715 7.33883 5.21191 7.30954 5.25586C7.19235 5.43457 7.19821 5.64844 7.32711 5.8125C7.3652 5.8623 7.60836 6 7.96286 6.17871L8.53414 6.46582L8.83004 7.04883C9.16403 7.70508 9.21383 7.76367 9.46286 7.76367C9.71188 7.76367 9.76168 7.70508 10.0957 7.04883L10.3916 6.46582L10.9746 6.16992C11.4404 5.93262 11.5693 5.85352 11.622 5.77441C11.7275 5.61914 11.7363 5.50195 11.6572 5.34082C11.5869 5.20312 11.5781 5.19434 10.9922 4.89844L10.4004 4.59961L10.1074 4.0166C9.88766 3.57715 9.79391 3.41602 9.7236 3.36621C9.60348 3.28125 9.39254 3.26367 9.26364 3.32812ZM9.55368 4.92773C9.67965 5.2002 9.75875 5.2793 10.0166 5.40527L10.2568 5.51953L10.0429 5.62793C9.77633 5.7627 9.70602 5.83008 9.58297 6.09082C9.52731 6.20508 9.47457 6.29883 9.46579 6.29883C9.457 6.29883 9.38961 6.18457 9.31637 6.04395C9.18454 5.78906 9.18454 5.78613 8.95895 5.66895C8.83297 5.60156 8.72457 5.54004 8.71286 5.52832C8.70407 5.51953 8.80368 5.45801 8.93258 5.39062C9.18454 5.26465 9.25778 5.18555 9.38668 4.89844C9.41891 4.83105 9.45114 4.77539 9.46286 4.77539C9.47457 4.77539 9.51266 4.84277 9.55368 4.92773Z" fill="#FF546D"/>
</svg>
