<svg width="18" height="18" viewBox="0 0 18 18" fill="none" xmlns="http://www.w3.org/2000/svg">
<path d="M9.81095 0.0382023C11.9349 0.238676 13.9393 1.19532 15.4233 2.71469C16.014 3.31611 16.3727 3.79092 16.8053 4.54357C18.1099 6.80856 18.3595 9.54132 17.4875 11.9751C17.0303 13.2518 16.3551 14.3421 15.4233 15.2917C13.6545 17.103 11.1754 18.0948 8.66809 17.9928C6.36479 17.9014 4.28654 17.0045 2.66896 15.4043C2.13093 14.8697 2.00434 14.6973 2.00434 14.5004V14.3386L2.85533 13.4804C3.97709 12.355 3.97006 12.3585 4.43775 12.8861C5.22545 13.7759 6.07996 14.3492 7.12787 14.7009C8.14414 15.0385 9.34678 15.0913 10.3912 14.838C13.243 14.1452 15.1806 11.5038 14.9767 8.5882C14.7481 5.28919 11.8786 2.79558 8.58018 3.02419C7.73271 3.08398 7.14545 3.23522 6.41754 3.58693C5.87951 3.84719 5.46457 4.12504 4.94061 4.57874C4.92303 4.59632 5.26061 4.9621 5.77402 5.47911C6.24875 5.95743 6.66369 6.39706 6.69534 6.46037C6.7727 6.6116 6.76567 6.84373 6.67776 7.03365C6.58985 7.23061 6.49138 7.33612 6.32259 7.42405C6.196 7.48735 6.07644 7.49087 3.38632 7.49087C0.748953 7.49087 0.57313 7.48384 0.439503 7.42405C0.26016 7.34315 0.0843372 7.1462 0.0386219 6.97386C0.0140076 6.88594 -5.91278e-05 5.91171 -5.91278e-05 4.12855C-5.91278e-05 1.08981 -0.00357628 1.1496 0.235546 0.952641C0.379723 0.836578 0.625877 0.7381 0.780602 0.7381C1.00214 0.7381 1.1428 0.84713 1.95159 1.65606C2.39819 2.09921 2.77445 2.46146 2.78852 2.46146C2.80258 2.46146 2.97138 2.32782 3.16478 2.16603C5.03907 0.590384 7.45842 -0.18689 9.81095 0.0382023Z" fill="#EEB738"/>
</svg>
