<svg width="13" height="23" viewBox="0 0 13 23" fill="none" xmlns="http://www.w3.org/2000/svg">
<path d="M7.24123 0.0853519C7.16935 0.130274 7.07501 0.20664 7.03458 0.251562C6.99865 0.296484 5.53869 3.21191 3.79122 6.72031C0.336732 13.6697 0.498451 13.3014 0.714076 13.6473C0.767982 13.7371 0.884779 13.8359 0.992592 13.8854C1.16329 13.9617 1.334 13.9707 3.49923 13.9707H5.82169L5.79923 14.1145C5.73634 14.5457 4.88283 22.2678 4.88283 22.407C4.88283 22.7305 5.16134 23 5.49826 23C5.67345 23 5.89357 22.8563 6.01935 22.6541C6.07775 22.5598 7.53771 19.7117 9.25822 16.3246C12.7217 9.49648 12.524 9.9457 12.232 9.62227L12.0793 9.45605L9.60412 9.44258C8.24298 9.43809 7.12892 9.42012 7.12892 9.41113C7.12892 9.40215 7.35353 7.46152 7.62306 5.09863C7.89708 2.73574 8.1172 0.732227 8.1172 0.637892C8.1172 0.323439 7.81173 0 7.51076 0C7.43888 0 7.31759 0.0359383 7.24123 0.0853519Z" fill="#AA3FEC"/>
</svg>
