<svg width="20" height="20" viewBox="0 0 20 20" fill="none" xmlns="http://www.w3.org/2000/svg">
<path d="M7.08993 0.132824C4.85946 0.867199 2.9454 2.33595 1.66415 4.3047C0.558681 6.00001 -0.0272566 8.13282 0.0508684 10.1563C0.0938371 11.2422 0.234462 12.0313 0.5704 13.0508C1.38681 15.5274 3.18759 17.6328 5.52743 18.8516C6.55477 19.3867 7.63681 19.7305 8.84774 19.9063C9.42196 19.9922 10.8868 20.0039 11.4454 19.9297C13.754 19.6211 15.7735 18.6406 17.3673 17.0508C17.9493 16.4688 18.2774 16.0742 18.7149 15.4141C19.3829 14.4102 20.0001 12.9727 20.0001 12.418C20.0001 12.2188 19.9845 12.1719 19.879 12.0508C19.6251 11.7617 19.3048 11.7734 18.9337 12.082C18.3204 12.6016 17.7462 12.9766 17.1212 13.2656C13.629 14.9024 9.47665 13.7422 7.33602 10.5274C5.67977 8.04298 5.59774 4.80079 7.12899 2.25392C7.3829 1.82814 7.59774 1.53126 7.95321 1.10939C8.24228 0.765636 8.27743 0.492199 8.05868 0.234386C7.83212 -0.0351448 7.66024 -0.0546761 7.08993 0.132824ZM5.72665 2.32814C5.41806 2.96095 5.14852 3.75392 5.00009 4.48829C4.77352 5.6172 4.78915 6.98439 5.03915 8.14454C5.25399 9.13673 5.7579 10.3242 6.30868 11.1524C7.79306 13.375 10.129 14.8242 12.7345 15.1367C13.2735 15.2031 14.2735 15.2109 14.797 15.1524C15.7852 15.043 16.8751 14.7266 17.7345 14.2969C17.9142 14.2109 18.0626 14.1445 18.0704 14.1524C18.0977 14.1758 17.6876 14.8164 17.4063 15.1953C17.0743 15.6406 16.3087 16.4375 15.879 16.7852C14.8282 17.6328 13.4181 18.3125 12.1485 18.5899C11.254 18.7813 10.1368 18.8438 9.26571 18.7461C7.60556 18.5664 5.94149 17.8828 4.63681 16.8477C2.77352 15.3672 1.54696 13.1406 1.29306 10.7734C1.26962 10.5625 1.25009 10.1211 1.25009 9.78907C1.25009 7.86329 1.86727 6.01564 3.03915 4.43751C3.37509 3.98829 4.14071 3.18751 4.56649 2.84376C4.99227 2.50392 5.85165 1.93361 5.88681 1.96876C5.89462 1.97657 5.82431 2.13673 5.72665 2.32814Z" fill="#FF546D"/>
<path d="M17.2148 0.875C16.9023 0.988281 16.8008 1.1875 16.7969 1.6875V2.03125H16.4453C16.1641 2.03125 16.0586 2.04688 15.9336 2.10938C15.7305 2.21484 15.625 2.39062 15.625 2.63281C15.625 3.04688 15.8945 3.24219 16.457 3.24219H16.7969V3.58203C16.7969 4.14062 16.9961 4.41406 17.4023 4.41406C17.8164 4.41406 18.0039 4.15234 18.0078 3.58203V3.24219H18.3516C18.6289 3.24219 18.7266 3.22656 18.8672 3.15234C19.2734 2.94922 19.3086 2.40625 18.9375 2.14062C18.8281 2.0625 18.7539 2.05078 18.4102 2.03906L18.0156 2.02344L18 1.62891C17.9883 1.28516 17.9766 1.21094 17.8984 1.10156C17.7383 0.878906 17.4609 0.789062 17.2148 0.875Z" fill="#FF546D"/>
<path d="M12.3518 4.4375C12.18 4.52734 12.137 4.59375 11.7229 5.41797L11.3675 6.13281L10.5862 6.52344C10.0979 6.76953 9.78544 6.94922 9.74637 7.00781C9.59012 7.24609 9.59794 7.53125 9.76981 7.75C9.82059 7.81641 10.1448 8 10.6175 8.23828L11.3792 8.62109L11.7737 9.39844C12.219 10.2734 12.2854 10.3516 12.6175 10.3516C12.9495 10.3516 13.0159 10.2734 13.4612 9.39844L13.8557 8.62109L14.6331 8.22656C15.2542 7.91016 15.4261 7.80469 15.4964 7.69922C15.637 7.49219 15.6487 7.33594 15.5432 7.12109C15.4495 6.9375 15.4378 6.92578 14.6565 6.53125L13.8675 6.13281L13.4768 5.35547C13.1839 4.76953 13.0589 4.55469 12.9651 4.48828C12.805 4.375 12.5237 4.35156 12.3518 4.4375ZM12.7386 6.57031C12.9065 6.93359 13.012 7.03906 13.3557 7.20703L13.6761 7.35938L13.3909 7.50391C13.0354 7.68359 12.9417 7.77344 12.7776 8.12109C12.7034 8.27344 12.6331 8.39844 12.6214 8.39844C12.6097 8.39844 12.5198 8.24609 12.4222 8.05859C12.2464 7.71875 12.2464 7.71484 11.9456 7.55859C11.7776 7.46875 11.6331 7.38672 11.6175 7.37109C11.6057 7.35938 11.7386 7.27734 11.9104 7.1875C12.2464 7.01953 12.344 6.91406 12.5159 6.53125C12.5589 6.44141 12.6018 6.36719 12.6175 6.36719C12.6331 6.36719 12.6839 6.45703 12.7386 6.57031Z" fill="#FF546D"/>
</svg>
