<svg width="20" height="20" viewBox="0 0 20 20" fill="none" xmlns="http://www.w3.org/2000/svg">
<path d="M7.28536 1.30858C6.3088 1.52342 5.50411 2.24217 5.1213 3.23827C4.8088 4.05077 4.78927 5.01561 5.07442 5.83202C5.2463 6.33202 5.46895 6.67967 5.85958 7.0703C6.26583 7.47655 6.52364 7.64842 6.96114 7.80077C7.33614 7.93358 7.98067 7.96483 8.36739 7.87499C9.49239 7.61327 10.3596 6.66405 10.6525 5.37889C10.7541 4.92186 10.7385 4.13671 10.6135 3.66405C10.1838 2.03124 8.71505 0.992175 7.28536 1.30858ZM8.4338 2.58202C8.91817 2.8203 9.31661 3.34374 9.47286 3.9453C9.5627 4.28124 9.5627 4.89842 9.47286 5.23436C9.3088 5.85936 8.91036 6.3828 8.41817 6.62499C8.20723 6.72655 8.14473 6.73827 7.79317 6.73827C7.44161 6.73827 7.37911 6.72655 7.16817 6.62499C6.70723 6.39842 6.30098 5.87499 6.12911 5.28124C6.03145 4.9453 6.02364 4.32811 6.11348 3.97655C6.30489 3.23436 6.85567 2.60155 7.4377 2.46483C7.73458 2.39061 8.14473 2.44139 8.4338 2.58202Z" fill="#FF546D"/>
<path d="M13.6875 2.8476C12.5313 3.03119 11.5469 3.98822 11.207 5.25385C11.0898 5.68744 11.0898 6.45307 11.2031 6.87885C11.5352 8.10932 12.4805 8.87885 13.6484 8.87103C14.875 8.86713 15.9453 8.00385 16.4102 6.64838C16.5391 6.27728 16.543 6.25385 16.5391 5.62494C16.5391 5.0351 16.5313 4.95307 16.4375 4.67963C16.1445 3.80853 15.4922 3.14838 14.6914 2.914C14.4336 2.83978 13.9531 2.80853 13.6875 2.8476ZM14.5195 4.1015C15.0547 4.33588 15.3906 4.91791 15.3906 5.61322C15.3906 6.00385 15.332 6.25775 15.1523 6.62885C14.9492 7.04291 14.6211 7.38275 14.2617 7.55463C14.0273 7.664 13.9688 7.67572 13.6328 7.67572C13.2109 7.67572 13.082 7.62885 12.793 7.37494C12.5586 7.16791 12.3594 6.75385 12.3008 6.36713C12.1484 5.32416 12.9023 4.164 13.8203 4.02728C14.0898 3.98432 14.3008 4.00775 14.5195 4.1015Z" fill="#FF546D"/>
<path d="M1.82831 5.17578C0.3869 5.52734 -0.370912 7.19531 0.1994 8.76563C0.523619 9.66406 1.23456 10.3633 2.09003 10.6328C2.47284 10.7539 3.07049 10.7539 3.46503 10.6328C4.03143 10.457 4.54315 10.0156 4.82831 9.44922C5.05487 8.99609 5.12909 8.61719 5.10956 8.04688C5.09393 7.63281 5.07049 7.50391 4.96503 7.19141C4.78534 6.65625 4.57831 6.32422 4.16424 5.91797C3.87909 5.63281 3.74237 5.53125 3.47284 5.39844C2.93378 5.13281 2.34393 5.05078 1.82831 5.17578ZM2.91815 6.42578C3.04315 6.48828 3.24237 6.63672 3.35956 6.75391C4.17987 7.58203 4.13299 8.98828 3.26581 9.44531C3.09784 9.53516 3.01971 9.55078 2.75409 9.54688C2.48846 9.54688 2.40643 9.53125 2.22674 9.4375C1.91815 9.27734 1.71893 9.10156 1.53534 8.82813C1.29315 8.46875 1.19549 8.14453 1.19159 7.69531C1.19159 7.28516 1.25409 7.05859 1.45331 6.76563C1.76581 6.30859 2.38299 6.16797 2.91815 6.42578Z" fill="#FF546D"/>
<path d="M17.1289 7.99222C16.9805 8.02347 16.6758 8.13675 16.4609 8.24222C15.4258 8.74222 14.7266 9.84769 14.7266 10.9766C14.7266 11.711 14.9453 12.2578 15.4258 12.7344C15.9258 13.2344 16.4336 13.4219 17.168 13.3867C17.6523 13.3633 17.9922 13.2657 18.4336 13.0235C18.7734 12.8321 19.3477 12.2578 19.5625 11.8946C20.0664 11.0352 20.1289 10.0078 19.7305 9.19925C19.5352 8.80862 19.3359 8.57816 18.9961 8.34378C18.4687 7.98441 17.7656 7.85159 17.1289 7.99222ZM18.0352 9.16019C18.1484 9.19534 18.3047 9.28519 18.4102 9.37503C19.207 10.0782 18.793 11.5742 17.6562 12.1055C17.4727 12.1875 17.3828 12.2032 17.0703 12.2071C16.75 12.2071 16.6719 12.1953 16.5078 12.1094C16.2695 11.9883 16.0781 11.7657 15.9727 11.4883C15.8672 11.2071 15.8828 10.6758 16.0117 10.3594C16.3711 9.46487 17.2695 8.93362 18.0352 9.16019Z" fill="#FF546D"/>
<path d="M8.45313 8.43359C7.60156 8.58594 6.85938 8.92188 6.19141 9.46484C5.66797 9.89062 5.39844 10.2539 4.13281 12.2266C3.46485 13.2695 2.86719 14.2266 2.8086 14.3555C2.44141 15.1406 2.44141 16.1523 2.8125 16.9414C3.21094 17.793 3.95313 18.4023 4.88281 18.6367C5.16016 18.707 5.28906 18.7188 5.72266 18.7031C6.16406 18.6875 6.27344 18.668 6.5625 18.5664C8.06641 18.0234 8.22656 17.9883 9.27735 17.9922C9.9336 17.9922 10.1211 18.0039 10.457 18.0781C10.8398 18.1602 10.9922 18.2109 11.9141 18.5391C12.2852 18.6719 12.3711 18.6875 12.8125 18.7031C13.5156 18.7266 13.9961 18.6094 14.5625 18.2773C14.875 18.0898 15.3828 17.5742 15.5859 17.2344C15.8594 16.7695 15.9805 16.3555 16.0039 15.8008C16.0273 15.2617 15.9688 14.8828 15.7891 14.457C15.6875 14.2227 13.9766 11.5 13.3164 10.5273C13.0781 10.1758 12.6055 9.66016 12.2852 9.40234C11.2695 8.57812 9.77344 8.20312 8.45313 8.43359ZM10.1602 9.64453C11 9.85938 11.7305 10.3438 12.2188 11.0078C12.5586 11.4648 14.5352 14.5781 14.6797 14.875C14.793 15.1133 14.8164 15.2148 14.8359 15.5C14.8672 16.0977 14.7305 16.5 14.3594 16.9023C13.9102 17.3867 13.4922 17.5625 12.8555 17.5312C12.5273 17.5156 12.4258 17.4883 12.0195 17.3281C11.0703 16.957 10.3242 16.8164 9.29688 16.8164C8.21875 16.8164 7.48438 16.9531 6.52344 17.332C6.12891 17.4883 6.02735 17.5117 5.69922 17.5312C5.38672 17.5469 5.27344 17.5352 5.04297 17.4648C4.50781 17.3008 4.03125 16.8633 3.82422 16.3398C3.7461 16.1484 3.73047 16.043 3.73047 15.6445C3.73047 15.2266 3.74219 15.1484 3.83203 14.9414C3.9336 14.6992 6.05469 11.3633 6.35156 10.9727C6.91406 10.2383 7.79688 9.71875 8.73047 9.57031C9.08203 9.51562 9.81641 9.55469 10.1602 9.64453Z" fill="#FF546D"/>
</svg>
